<svg xmlns="http://www.w3.org/2000/svg" version="1.1" xmlns:xlink="http://www.w3.org/1999/xlink" xmlns:svgjs="http://svgjs.com/svgjs" width="1000" height="1000"><rect width="1000" height="1000" rx="200" ry="200" fill="#f7f3f3"></rect><g transform="matrix(2,0,0,2,55.95329308509827,0.4640021324157715)"><svg xmlns="http://www.w3.org/2000/svg" version="1.1" xmlns:xlink="http://www.w3.org/1999/xlink" xmlns:svgjs="http://svgjs.com/svgjs" width="444" height="500"><svg width="444" height="500" viewBox="0 0 444 500" fill="none" xmlns="http://www.w3.org/2000/svg">
<path fill-rule="evenodd" clip-rule="evenodd" d="M202.79 494.029C208.75 497.238 215.169 499.072 222.047 499.072C228.466 499.072 235.343 497.697 241.304 494.946L424.243 389.033C436.164 382.156 443.5 369.318 443.5 355.563V144.197C443.5 130.442 436.164 117.604 424.243 110.727L241.304 4.8142C229.841 -1.60473 214.252 -1.60473 202.79 4.8142L19.8502 110.727C7.92934 117.604 0.593414 130.442 0.593414 144.197V355.563C0.593414 369.318 7.92934 382.156 19.8502 389.033L67.9922 416.543C91.3755 428.005 99.6284 428.005 110.174 428.005C144.561 428.005 164.276 406.915 164.276 370.694V162.078C164.276 158.869 161.525 156.576 158.774 156.576H135.391C132.182 156.576 129.889 159.327 129.889 162.078V370.694C129.889 386.741 112.925 402.788 85.8736 389.033L35.8976 360.148C34.0636 359.231 33.1466 356.939 33.1466 355.105V143.738C33.1466 141.904 34.0636 139.612 35.8976 138.695L218.837 33.2409C220.213 32.3239 222.505 32.3239 224.339 33.2409L407.279 138.695C409.113 139.612 410.03 141.446 410.03 143.738V355.105C410.03 357.397 409.113 359.231 407.279 360.148L224.339 466.061C222.964 466.978 220.671 466.978 218.837 466.061L172.071 438.092C170.695 437.175 168.861 436.717 167.486 437.634C154.648 444.97 152.355 445.887 139.976 450.013C137.225 450.93 132.64 452.764 141.81 457.808L202.79 494.029ZM198.108 374H265.438C287.597 374 306.418 369.632 321.901 360.896C337.384 352.089 349.173 339.518 357.27 323.183C365.366 306.777 369.415 287.21 369.415 264.483C369.415 241.898 365.402 222.509 357.376 206.315C349.351 190.051 337.81 177.587 322.753 168.922C307.696 160.186 289.585 155.818 268.42 155.818H198.108V374ZM263.733 350.563H224.528V179.256H266.716C283.761 179.256 298.001 182.7 309.436 189.589C320.871 196.408 329.465 206.209 335.217 218.993C340.97 231.706 343.847 246.869 343.847 264.483C343.847 282.239 340.935 297.544 335.111 310.399C329.287 323.254 320.445 333.162 308.584 340.122C296.723 347.082 281.773 350.563 263.733 350.563Z" fill="#539E43"></path>
</svg></svg></g></svg>