<svg width="19" height="28" viewBox="0 0 19 28" fill="none" xmlns="http://www.w3.org/2000/svg">
<path 
d="M12.7585 0.818181H18.2301V19.0739C18.2301 20.7614 17.8509 22.2273 17.0923 23.4716C16.3423 24.7159 15.2983 25.6747 13.9602 26.348C12.6222 27.0213 11.0668 27.358 9.29403 27.358C7.71733 27.358 6.28551 27.081 4.99858 26.527C3.72017 25.9645 2.70597 25.1122 1.95597 23.9702C1.20597 22.8196 0.835227 21.375 0.84375 19.6364H6.35369C6.37074 20.3267 6.51136 20.919 6.77557 21.4134C7.0483 21.8991 7.41903 22.2741 7.88778 22.5384C8.36506 22.794 8.92756 22.9219 9.57528 22.9219C10.2571 22.9219 10.8324 22.777 11.3011 22.4872C11.7784 22.1889 12.1406 21.7543 12.3878 21.1832C12.6349 20.6122 12.7585 19.9091 12.7585 19.0739V0.818181Z" fill="black"/>
</svg>
